<svg width="27" height="27" viewBox="0 0 27 27" version="1.1" xmlns="http://www.w3.org/2000/svg" xmlns:xlink="http://www.w3.org/1999/xlink">
<title>google</title>
<desc>Created using Figma</desc>
<g id="Canvas" transform="translate(-2683 1885)">
<g id="google">
<g id="Vector">
<use xlink:href="#path0_fill" transform="translate(2696.8 -1874.02)" fill="#00A8FF"/>
</g>
<g id="Vector">
<use xlink:href="#path1_fill" transform="translate(2683 -1877.71)" fill="#4DC2FF"/>
</g>
<g id="Vector">
<use xlink:href="#path2_fill" transform="translate(2684.61 -1868.68)" fill="#26B5FF"/>
</g>
<g id="Vector">
<use xlink:href="#path3_fill" transform="translate(2684.51 -1885)" fill="#73CFFF"/>
</g>
</g>
</g>
<defs>
<path id="path0_fill" d="M 12.9674 0C 13.1225 0.816652 13.2033 1.66004 13.2033 2.52199C 13.2033 3.48851 13.1017 4.43131 12.9081 5.34072C 12.2509 8.43536 10.5337 11.1376 8.15492 13.0499L 6.45343 13.772L 3.75704 9.44934C 5.3355 8.52364 6.56907 7.07496 7.21887 5.34072L 0 5.34072L 0 0L 7.32418 0L 12.9674 0Z"/>
<path id="path1_fill" d="M 5.98382 9.02504L 5.04398 12.5336L 1.60889 12.6063C 0.582298 10.7022 0 8.52364 0 6.20858C 0 3.96993 0.544435 1.85885 1.50948 2.83244e-07L 1.51022 2.83244e-07L 4.56842 0.560676L 5.90809 3.60052C 5.6277 4.41797 5.47488 5.29547 5.47488 6.20858C 5.47498 7.19957 5.65449 8.14906 5.98382 9.02504Z"/>
<path id="path2_fill" d="M 20.3421 7.71062C 18.0286 9.57021 15.0904 10.6836 11.8912 10.6836C 6.75006 10.6836 2.2802 7.81003 0 3.58122L 4.37493 0C 5.51501 3.04269 8.45018 5.20867 11.8912 5.20867C 13.3703 5.20867 14.7559 4.80884 15.945 4.11084L 20.3421 7.71062Z"/>
<path id="path3_fill" d="M 20.6077 3.10798L 16.2343 6.68846C 15.0037 5.91927 13.5491 5.47493 11.9906 5.47493C 8.47169 5.47493 5.48163 7.74026 4.39867 10.8921L 0.000738313 7.29154L 2.89681e-08 7.29154C 2.24682 2.95964 6.77305 0 11.9906 0C 15.2663 0 18.2697 1.16681 20.6077 3.10798Z"/>
</defs>
</svg>
